<svg width="50" height="50" viewBox="0 0 50 50" fill="none" xmlns="http://www.w3.org/2000/svg">
<circle cx="24.9995" cy="25" r="25" fill="#FFE5DF"/>
<path d="M36.7414 11H13.2576C12.659 11.0008 12.085 11.2389 11.6616 11.6621C11.2384 12.0855 11.0003 12.6595 10.9995 13.2581V36.7419C11.0003 37.3405 11.2384 37.9145 11.6616 38.3379C12.085 38.7611 12.659 38.9992 13.2576 39H36.7414C37.3401 38.9992 37.914 38.7611 38.3374 38.3379C38.7606 37.9145 38.9987 37.3405 38.9995 36.7419V13.2581C38.9987 12.6595 38.7606 12.0855 38.3374 11.6621C37.914 11.2389 37.3401 11.0008 36.7414 11ZM38.0963 36.7419C38.0963 37.1012 37.9535 37.446 37.6995 37.7C37.4455 37.954 37.1007 38.0967 36.7415 38.0967H13.2576C12.8983 38.0967 12.5536 37.954 12.2996 37.7C12.0456 37.4459 11.9028 37.1012 11.9028 36.7419V13.2581C11.9028 12.8988 12.0455 12.554 12.2996 12.3C12.5536 12.046 12.8984 11.9033 13.2576 11.9033H36.7415C37.1007 11.9033 37.4455 12.046 37.6995 12.3C37.9535 12.5541 38.0963 12.8988 38.0963 13.2581V36.7419Z" fill="#DC0505"/>
<path d="M35.8381 12.8065H14.1607C13.8014 12.8065 13.4567 12.9493 13.2027 13.2033C12.9487 13.4573 12.8059 13.8021 12.8059 14.1613V35.8388C12.8059 36.198 12.9486 36.5428 13.2027 36.7968C13.4567 37.0508 13.8015 37.1936 14.1607 37.1936H35.8381C36.1974 37.1936 36.5422 37.0508 36.7962 36.7968C37.0502 36.5428 37.193 36.198 37.193 35.8388V14.1613C37.193 13.8021 37.0502 13.4573 36.7962 13.2033C36.5421 12.9493 36.1974 12.8065 35.8381 12.8065ZM14.1607 13.7097H35.8381C35.9579 13.7097 36.0728 13.7573 36.1575 13.842C36.2422 13.9267 36.2898 14.0416 36.2898 14.1614V29.9678H34.0317V25.5845C34.0424 24.6293 33.6843 23.7069 33.0321 23.0093C32.3797 22.3115 31.4835 21.8924 30.5299 21.8387C29.3847 21.803 28.2906 22.3127 27.5811 23.2123C26.8714 24.1119 26.6307 25.2946 26.9319 26.4C27.2644 27.5678 27.4993 28.7611 27.6341 29.9678H22.365C22.4998 28.7611 22.7347 27.5678 23.0671 26.4C23.3684 25.2946 23.1276 24.1119 22.418 23.2123C21.7085 22.3127 20.6143 21.803 19.4692 21.8387C18.5155 21.8924 17.6194 22.3115 16.967 23.0093C16.3147 23.7069 15.9567 24.6293 15.9674 25.5845V29.9678H13.7093V14.1614C13.7093 13.912 13.9115 13.7097 14.1609 13.7097H14.1607ZM27.8036 26.1624C27.5822 25.3477 27.7534 24.4765 28.2661 23.806C28.7788 23.1354 29.5747 22.7421 30.4189 22.7423H30.5034C31.2227 22.7872 31.8969 23.1076 32.3858 23.637C32.875 24.1665 33.1409 24.864 33.1286 25.5848V32.1123C33.1393 32.7133 32.9177 33.2953 32.5101 33.737C32.1024 34.179 31.5401 34.4465 30.9401 34.484C30.3292 34.5028 29.7369 34.2734 29.2982 33.8478C28.8597 33.4222 28.6123 32.8371 28.6125 32.226V31.3742C28.5801 29.6082 28.3079 27.855 27.8036 26.1623L27.8036 26.1624ZM21.3865 31.3743V32.2261C21.3887 32.8374 21.1408 33.4229 20.7004 33.8468C20.2648 34.2769 19.6706 34.5075 19.0589 34.4841C18.4589 34.4466 17.8966 34.1791 17.4889 33.7372C17.0813 33.2954 16.8597 32.7134 16.8704 32.1124V25.5849C16.8581 24.8641 17.1242 24.1666 17.6132 23.6371C18.1023 23.1077 18.7767 22.7871 19.496 22.7424H19.5805C20.4246 22.7424 21.2204 23.1357 21.7331 23.8063C22.2458 24.4768 22.4165 25.3478 22.1954 26.1625C21.6912 27.8552 21.419 29.6085 21.3865 31.3744L21.3865 31.3743ZM35.8381 36.2906H14.1607C13.9113 36.2906 13.7091 36.0884 13.7091 35.839V30.8712H15.9672V32.1124C15.9579 32.9477 16.2714 33.7545 16.8422 34.3646C17.413 34.9747 18.1972 35.341 19.0313 35.3874H19.1303C19.9688 35.3874 20.7728 35.0543 21.3656 34.4614C21.9585 33.8687 22.2916 33.0646 22.2916 32.2261V31.3743C22.2916 31.2081 22.2956 31.04 22.302 30.8712H27.6987C27.7049 31.0402 27.7092 31.2081 27.7092 31.3743V32.2261C27.7092 33.0646 28.0422 33.8686 28.6352 34.4614C29.2279 35.0543 30.0319 35.3874 30.8705 35.3874H30.9695C31.8033 35.3406 32.587 34.9741 33.1574 34.364C33.7278 33.7539 34.041 32.9475 34.0318 32.1124V30.8712H36.2898V35.839C36.2898 35.9587 36.2422 36.0737 36.1576 36.1583C36.0729 36.243 35.958 36.2906 35.8382 36.2906H35.8381Z" fill="#DC0505"/>
<path d="M17.3221 20.9354H32.6769C33.0362 20.9354 33.381 20.7927 33.635 20.5387C33.889 20.2846 34.0318 19.9399 34.0318 19.5806V15.9677C34.0318 15.6085 33.889 15.2637 33.635 15.0097C33.3809 14.7557 33.0362 14.6129 32.6769 14.6129H17.3221C16.9628 14.6129 16.618 14.7557 16.3641 15.0097C16.1101 15.2637 15.9673 15.6085 15.9673 15.9677V19.5806C15.9673 19.9399 16.11 20.2847 16.3641 20.5387C16.6181 20.7927 16.9629 20.9354 17.3221 20.9354ZM16.8705 15.9677C16.8705 15.7183 17.0727 15.5161 17.3221 15.5161H32.6769C32.7967 15.5161 32.9116 15.5637 32.9963 15.6483C33.081 15.733 33.1286 15.8479 33.1286 15.9677V19.5806C33.1286 19.7004 33.081 19.8153 32.9963 19.9C32.9116 19.9846 32.7967 20.0322 32.6769 20.0322H17.3221C17.0727 20.0322 16.8705 19.83 16.8705 19.5806V15.9677Z" fill="#DC0505"/>
<path d="M28.1608 19.5807H29.9673C30.0871 19.5807 30.202 19.5331 30.2866 19.4484C30.3713 19.3637 30.4189 19.2488 30.4189 19.1291V16.4194C30.4189 16.2996 30.3713 16.1847 30.2866 16.1C30.202 16.0154 30.0871 15.9678 29.9673 15.9678H28.1608C27.9114 15.9678 27.7092 16.17 27.7092 16.4194V19.1291C27.7092 19.2488 27.7568 19.3637 27.8415 19.4484C27.9262 19.5331 28.0411 19.5807 28.1608 19.5807ZM28.6125 16.871H29.5157V18.6775H28.6125V16.871Z" fill="#DC0505"/>
<path d="M31.322 18.6774H32.2252V19.5806H31.322V18.6774Z" fill="#DC0505"/>
<path d="M31.7738 25.4515H32.677C32.6762 24.8529 32.4381 24.279 32.0149 23.8556C31.5915 23.4324 31.0176 23.1943 30.4189 23.1935V24.0967C30.7782 24.0967 31.123 24.2394 31.377 24.4935C31.631 24.7475 31.7738 25.0923 31.7738 25.4515L31.7738 25.4515Z" fill="#DC0505"/>
<path d="M17.322 25.4516H18.2253C18.2253 25.0924 18.368 24.7476 18.622 24.4936C18.8761 24.2396 19.2209 24.0968 19.5801 24.0968V23.1936C18.9815 23.1944 18.4075 23.4325 17.9841 23.8557C17.5609 24.2791 17.3228 24.8531 17.322 25.4517L17.322 25.4516Z" fill="#DC0505"/>
</svg>
