<svg width="344" height="486" viewBox="0 0 344 486" fill="none" xmlns="http://www.w3.org/2000/svg">
<path d="M128.361 93.4052C122.208 82.4711 114.118 72.7474 104.485 64.7116L86.1278 111.496L103.946 144.345C105.669 147.527 104.579 151.501 101.471 153.357C74.5587 169.458 53.7429 194.03 42.2886 223.222C30.8342 252.413 29.3843 284.586 38.1664 314.691C39.1825 318.165 37.2788 321.82 33.8517 322.981L-1.55089 334.947L-19.9083 381.732C-7.38017 382.391 5.16499 380.761 17.1111 376.929L48.9486 366.671C43.2925 358.936 38.3618 350.695 34.2201 342.053L46.3962 336.226L46.399 336.227C61.8804 368.587 89.0684 393.864 122.466 406.952C140.005 413.915 158.767 417.272 177.633 416.819C196.497 416.368 215.079 412.116 232.265 404.321L304.73 219.641C297.431 202.24 286.699 186.485 273.175 173.326C259.652 160.163 243.613 149.866 226.02 143.043C203.84 134.337 179.828 131.36 156.193 134.38C153.461 134.736 150.789 133.393 149.441 130.989L128.361 93.4052ZM132.328 381.821L127.396 394.388C103.416 385.017 82.8338 368.602 68.3622 347.305L79.5207 339.707L79.5235 339.708C92.4655 358.757 110.876 373.439 132.328 381.821L132.328 381.821ZM74.0449 330.825L62.2449 337.385C59.8262 333.031 57.659 328.539 55.7564 323.934L68.2376 318.78C69.9401 322.905 71.8782 326.926 74.0449 330.825ZM230.797 297.19C224.258 313.856 211.367 327.239 194.958 334.399C178.55 341.56 159.971 341.909 143.305 335.37C126.64 328.831 113.256 315.94 106.096 299.531C98.9354 283.123 98.5857 264.544 105.125 247.878C111.664 231.213 124.555 217.829 140.964 210.669C157.372 203.509 175.951 203.159 192.617 209.698C209.269 216.255 222.64 229.147 229.799 245.549C236.955 261.952 237.315 280.523 230.797 297.19ZM93.1869 56.5484L76.9187 98.0085C63.8425 83.6585 44.2799 77.0765 25.1878 80.6073C6.09674 84.1354 -9.8201 97.2763 -16.9004 115.355L-74.4653 262.06C-81.5683 280.129 -78.8357 300.588 -67.2383 316.158C-55.642 331.73 -36.8234 340.208 -17.4777 338.58L-33.746 380.04C-63.732 374.302 -89.6091 355.508 -104.344 328.767C-119.082 302.027 -121.147 270.115 -109.982 241.697L-56.7878 106.129C-45.6467 77.7029 -22.431 55.7108 6.55883 46.1275C35.5453 36.5446 67.2951 40.3628 93.1863 56.5499L93.1869 56.5484ZM187.686 222.266C201.018 227.497 211.727 237.81 217.452 250.937C223.182 264.062 223.462 278.926 218.23 292.259C212.998 305.592 202.685 316.3 189.559 322.026C176.434 327.755 161.569 328.034 148.236 322.803C134.904 317.571 124.196 307.258 118.47 294.131C112.74 281.007 112.461 266.142 117.692 252.81C122.936 239.487 133.251 228.79 146.374 223.066C159.495 217.338 174.353 217.05 187.686 222.266Z" fill="#F7F5F5"/>
</svg>
