<svg width="50" height="50" viewBox="0 0 50 50" fill="none" xmlns="http://www.w3.org/2000/svg">
<circle cx="24.9995" cy="25" r="25" fill="#FFE5DF"/>
<path d="M26.1084 27.8485H22.284C22.0174 27.8485 21.8011 28.0648 21.8011 28.3314C21.8046 28.4213 21.833 28.5082 21.8833 28.5826L21.7722 28.6211H21.772C21.1921 27.5027 20.0992 26.7412 18.8493 26.5845C17.5993 26.4275 16.352 26.8957 15.5139 27.8363C14.6758 28.7768 14.3539 30.0696 14.6531 31.2934C14.9523 32.5172 15.8344 33.5155 17.0118 33.963C18.1895 34.4107 19.512 34.2506 20.5487 33.5347C21.5853 32.8187 22.2034 31.6388 22.2019 30.3789C22.2019 30.0929 22.1695 29.8079 22.1053 29.5292L24.0754 28.8146H26.1132V28.8144C26.3798 28.8144 26.596 28.5984 26.596 28.3315C26.596 28.0648 26.3798 27.8486 26.1132 27.8486L26.1084 27.8485ZM21.2361 30.3789C21.2402 31.3257 20.7815 32.2147 20.0074 32.7601C19.2335 33.3052 18.2419 33.4378 17.3516 33.1153C16.4615 32.7926 15.7852 32.0554 15.5404 31.1409C15.2953 30.2263 15.5128 29.2497 16.1226 28.5254C16.7323 27.8011 17.6575 27.4206 18.6004 27.506C19.5433 27.5916 20.3851 28.1322 20.8546 28.9544L18.2035 29.9201H18.2037C17.953 30.0109 17.8235 30.2875 17.914 30.5382C17.983 30.7294 18.1645 30.8568 18.3678 30.857C18.4243 30.8574 18.4803 30.8458 18.5321 30.8231L21.1879 29.8574C21.2191 30.0294 21.2351 30.204 21.2362 30.3788L21.2361 30.3789Z" fill="#DC0505"/>
<path d="M36.9876 20.2964C38.25 19.4503 39.0071 18.0303 39.006 16.5105V13.4829C39.006 13.2162 38.7898 13 38.5231 13C38.2565 13 38.0403 13.2162 38.0403 13.4829V16.5105C38.042 17.708 37.4459 18.8274 36.4515 19.4946L35.2008 20.33L35.5341 17.1719L36.3597 16.4281L36.3599 16.4284C36.4565 16.343 36.5151 16.2225 36.5222 16.0936C36.5296 15.9649 36.4849 15.8386 36.3985 15.7428C36.2224 15.543 35.9178 15.5236 35.7177 15.6993L31.1304 19.8278C30.9385 20.0048 30.9222 20.3021 31.0931 20.4991C31.2641 20.6962 31.5607 20.7218 31.7629 20.5569L32.5017 19.8856L31.8256 26.3462L19.9762 24.2024L18.9718 21.5804H18.9716C18.877 21.3335 18.6015 21.2087 18.3536 21.3004L17.6823 21.5562L16.5765 18.659H18.4069C18.8572 18.6575 19.2765 18.4296 19.5227 18.0524C19.7688 17.6754 19.8085 17.1996 19.6285 16.7868C19.4485 16.3739 19.0728 16.0795 18.6289 16.0032L14.4327 15.2983L13.3126 14.6367C13.0011 14.4515 12.6339 14.3828 12.2766 14.4429C11.9191 14.5031 11.5945 14.688 11.3608 14.9648C11.1269 15.2416 10.9989 15.5925 10.9995 15.9549C10.9995 16.6721 11.2845 17.36 11.7915 17.867C12.2988 18.3742 12.9864 18.659 13.7036 18.659H13.8582L15.3068 22.464L14.6452 22.7151C14.5245 22.7608 14.4271 22.8531 14.3749 22.971C14.3266 23.0887 14.3266 23.2204 14.3749 23.3381L14.9688 24.8978C14.4586 25.1897 13.9949 25.5557 13.5926 25.9843C12.4729 27.199 11.8657 28.7992 11.8976 30.4509C11.9678 32.1511 12.6971 33.7571 13.9311 34.9289C15.165 36.1008 16.8067 36.746 18.5082 36.7283H33.8537C35.1415 36.749 36.3892 36.2805 37.3455 35.4176C38.3015 34.5547 38.895 33.3613 39.006 32.0782C39.1032 30.6962 38.6162 29.3368 37.6637 28.331C36.8421 27.4554 35.7334 26.9035 34.5394 26.7763L35.0803 21.5757L36.9876 20.2964ZM33.6075 18.9202L34.4814 18.1378L33.5689 26.6607L32.7916 26.5206L33.6075 18.9202ZM11.9648 15.9552C11.9646 15.7543 12.0737 15.5693 12.2498 15.4723C12.3366 15.423 12.4347 15.3964 12.5345 15.3951C12.6354 15.3945 12.7344 15.4232 12.8195 15.4773L14.017 16.1822C14.0681 16.2106 14.1235 16.2302 14.1813 16.2402L18.4691 16.9597V16.9595C18.6468 16.9921 18.7765 17.146 18.7781 17.3266C18.7793 17.4256 18.7408 17.5208 18.6707 17.5909C18.6006 17.661 18.5054 17.6998 18.4064 17.6985H13.7031C13.2416 17.6972 12.7994 17.5129 12.4737 17.1861C12.1478 16.8593 11.9648 16.4167 11.9648 15.9551L11.9648 15.9552ZM14.8909 18.6593H15.5428L16.7935 21.8995L16.2237 22.1168L14.8909 18.6593ZM15.4415 23.4253L18.2421 22.3774L18.8796 24.0434C17.8438 23.9468 16.8 24.0958 15.8325 24.478L15.4415 23.4253ZM38.04 32.0155C37.9508 33.0556 37.4698 34.0233 36.6944 34.7224C35.919 35.4217 34.9071 35.8002 33.8631 35.7819H18.5077C17.0556 35.7994 15.654 35.2505 14.6 34.2516C13.5461 33.2527 12.9231 31.8825 12.8628 30.4315C12.8393 29.0271 13.3582 27.6677 14.3114 26.6362C15.3369 25.564 16.7586 24.9614 18.2421 24.9703C18.5886 24.9696 18.9346 25.0005 19.2756 25.0621C19.2756 25.0621 33.955 27.7132 33.9837 27.7132V27.713C35.0971 27.7244 36.1588 28.184 36.9292 28.9879C37.7076 29.7967 38.1105 30.8952 38.0398 32.0155L38.04 32.0155Z" fill="#DC0505"/>
</svg>
