<svg width="47" height="47" viewBox="0 0 47 47" fill="none" xmlns="http://www.w3.org/2000/svg">
<path d="M19.2716 14.7393C16.254 14.7393 13.7986 17.1983 13.7986 20.2195V28.0465C13.7986 31.0673 16.2554 33.5252 19.2738 33.5252H27.0937C30.1117 33.5252 32.5674 31.0662 32.5674 28.045V20.2173C32.5674 17.1969 30.1106 14.7393 27.0922 14.7393H19.2716ZM28.8137 17.745C29.2281 17.745 29.5644 18.0817 29.5644 18.4965C29.5644 18.9112 29.2281 19.2479 28.8137 19.2479C28.3993 19.2479 28.0629 18.9112 28.0629 18.4965C28.0629 18.0817 28.3993 17.745 28.8137 17.745ZM23.183 19.2479C25.8745 19.2479 28.0629 21.4383 28.0629 24.1322C28.0629 26.8262 25.8741 29.0166 23.183 29.0166C20.4916 29.0166 18.3031 26.8258 18.3031 24.1322C18.3031 21.4387 20.4916 19.2479 23.183 19.2479ZM23.183 20.7508C21.317 20.7508 19.8046 22.2645 19.8046 24.1322C19.8046 26 21.317 27.5137 23.183 27.5137C25.049 27.5137 26.5614 26 26.5614 24.1322C26.5614 22.2645 25.049 20.7508 23.183 20.7508Z" fill="#E12727"/>
<rect x="0.669434" y="0.5" width="45.0606" height="45.0606" rx="3.5" stroke="#C0C0C0"/>
</svg>
