<svg width="28" height="19" viewBox="0 0 28 19" fill="none" xmlns="http://www.w3.org/2000/svg">
<path d="M6.13771 7.40793C8.3157 10.4238 10.0034 11.7098 14.5758 13.8376L19.3655 12.0618C21.3581 12.5487 23.8633 13.1947 25.9771 13.396C26.6823 13.4616 27.2614 13.905 27.1639 14.265L26.0133 17.6517C25.8886 18.0265 25.0591 18.334 24.3341 18.287C6.73879 16.5884 -1.66875 10.1821 0.812096 0.741482C0.871729 0.373175 1.70117 0.0655904 2.40585 0.132723L9.38158 0.812892C10.1568 0.872152 10.7367 1.31398 10.8296 1.55837C10.2374 2.81278 10.7456 4.46299 10.9269 5.63285L6.13771 7.40793Z" fill="#AE0F0F"/>
</svg>
