<svg width="47" height="47" viewBox="0 0 47 47" fill="none" xmlns="http://www.w3.org/2000/svg">
<path d="M23.7249 12.8975C17.7453 12.8975 12.8967 17.7755 12.8967 23.7915C12.8967 29.2531 16.8961 33.7632 22.1061 34.551V26.6784H19.427V23.8149H22.1061V21.9093C22.1061 18.7547 23.6337 17.3703 26.24 17.3703C27.4877 17.3703 28.1486 17.4637 28.4606 17.5056V20.005H26.6831C25.577 20.005 25.1905 21.0608 25.1905 22.25V23.8149H28.4327L27.9933 26.6784H25.1905V34.5736C30.4755 33.8529 34.5531 29.3068 34.5531 23.7915C34.5531 17.7755 29.705 12.8975 23.7249 12.8975Z" fill="#00B2FF"/>
<rect x="0.5" y="0.5" width="45.0606" height="45.0606" rx="3.5" stroke="#C0C0C0"/>
</svg>
