<svg width="47" height="47" viewBox="0 0 47 47" fill="none" xmlns="http://www.w3.org/2000/svg">
<path d="M35.3456 15.2938C34.4652 15.7035 33.5186 15.9767 32.52 16.1058C33.5354 15.4726 34.3163 14.4628 34.6829 13.2698C33.7329 13.8548 32.6806 14.2844 31.5608 14.5109C30.6666 13.5152 29.3911 12.8975 27.9781 12.8975C25.2637 12.8975 23.0638 15.1885 23.0638 18.013C23.0638 18.4126 23.1083 18.8021 23.1922 19.1801C19.1088 18.9647 15.4871 16.9257 13.0642 13.831C12.6384 14.5871 12.399 15.4726 12.399 16.4071C12.399 18.1831 13.2646 19.7463 14.5845 20.6675C13.7788 20.6415 13.0205 20.4063 12.3566 20.0287C12.3566 20.0441 12.3566 20.067 12.3566 20.0886C12.3566 22.5704 14.051 24.6367 16.297 25.1072C15.8864 25.2253 15.4527 25.291 15.0056 25.291C14.6881 25.291 14.379 25.2531 14.0796 25.1967C14.7049 27.2247 16.5193 28.7072 18.6688 28.7508C16.9869 30.1206 14.8689 30.941 12.5655 30.941C12.1674 30.941 11.7786 30.9172 11.394 30.8683C13.5695 32.3156 16.1536 33.1641 18.9272 33.1641C27.9651 33.1641 32.9092 25.3676 32.9092 18.6043C32.9092 18.3827 32.9025 18.1619 32.8924 17.9439C33.8575 17.2284 34.6888 16.3252 35.3456 15.2938Z" fill="#00B2FF"/>
<rect x="0.8396" y="0.5" width="45.0606" height="45.0606" rx="3.5" stroke="#C0C0C0"/>
</svg>
