<svg width="117" height="18" viewBox="0 0 117 18" fill="none" xmlns="http://www.w3.org/2000/svg">
<path d="M113.232 17.8243C113.312 17.8179 113.385 17.7778 113.433 17.7145C113.481 17.6511 113.5 17.5705 113.484 17.4927L112.198 11.3223L116.908 7.07828H116.908C116.99 7.00521 117.021 6.89132 116.986 6.78753C116.952 6.68375 116.86 6.60932 116.75 6.59746L110.412 5.89449L107.78 0.161893L107.781 0.162087C107.735 0.063356 107.635 0 107.526 0C107.416 0 107.316 0.063356 107.27 0.162087L104.639 5.89469L98.301 6.59765V6.59746C98.1912 6.60931 98.0987 6.68375 98.0647 6.78753C98.0307 6.89131 98.0614 7.00521 98.1434 7.07828L102.853 11.3223L101.567 17.4927H101.567C101.544 17.5994 101.587 17.7096 101.676 17.774C101.765 17.8385 101.884 17.8451 101.98 17.7913L107.526 14.6778L113.071 17.7913C113.12 17.8179 113.177 17.8295 113.232 17.8243H113.232ZM112.809 17.0053L107.663 14.1175C107.578 14.0698 107.473 14.0698 107.388 14.1175L102.242 17.0053L103.434 11.2827H103.433C103.454 11.1863 103.42 11.0866 103.346 11.0209L98.9755 7.0785L104.857 6.42862C104.955 6.41851 105.04 6.35807 105.082 6.26944L107.525 0.944326L109.969 6.26944C110.011 6.35807 110.096 6.41832 110.194 6.42862L116.075 7.0785L111.705 11.0209C111.631 11.0866 111.597 11.1863 111.618 11.2827L112.809 17.0053H112.809Z" fill="#FBA724"/>
<path fill-rule="evenodd" clip-rule="evenodd" d="M9.26623 0.000378112C9.08974 0.00788536 8.93665 0.124322 8.88232 0.292423L6.89453 6.45325L0.422815 6.44044C0.239698 6.44015 0.0771888 6.55806 0.0206603 6.7322C-0.0358645 6.90633 0.026254 7.09711 0.174483 7.20455L5.41848 10.9993L3.40491 17.1537L3.40506 17.1535C3.34809 17.3277 3.40992 17.5184 3.55815 17.6262C3.70623 17.7338 3.90687 17.7336 4.05481 17.6257L9.28411 13.8096L14.5153 17.6257V17.6256C14.6632 17.7335 14.8639 17.7336 15.0121 17.626C15.1602 17.5183 15.222 17.3274 15.1651 17.1534L13.1515 10.999L18.3955 7.20426L18.3956 7.20441C18.544 7.09695 18.6061 6.90618 18.5496 6.7319C18.4929 6.55776 18.3306 6.43985 18.1473 6.44029L11.6756 6.4531L9.68557 0.292272C9.62727 0.111803 9.45578 -0.0075733 9.26634 0.000374087L9.26623 0.000378112Z" fill="#FBA724"/>
<path fill-rule="evenodd" clip-rule="evenodd" d="M33.7789 0.000378112C33.6024 0.00788536 33.4493 0.124322 33.395 0.292423L31.4072 6.45325L24.9355 6.44044C24.7524 6.44015 24.5899 6.55806 24.5334 6.7322C24.4768 6.90633 24.5389 7.09711 24.6872 7.20455L29.9312 10.9993L27.9176 17.1537L27.9178 17.1535C27.8608 17.3277 27.9226 17.5184 28.0708 17.6262C28.2189 17.7338 28.4196 17.7336 28.5675 17.6257L33.7968 13.8096L39.028 17.6257V17.6256C39.1759 17.7335 39.3766 17.7336 39.5248 17.626C39.6729 17.5183 39.7347 17.3274 39.6777 17.1534L37.6642 10.999L42.9082 7.20426L42.9083 7.20441C43.0567 7.09695 43.1188 6.90618 43.0623 6.7319C43.0056 6.55776 42.8433 6.43985 42.66 6.44029L36.1883 6.4531L34.1983 0.292272C34.14 0.111803 33.9685 -0.0075733 33.779 0.000374087L33.7789 0.000378112Z" fill="#FBA724"/>
<path fill-rule="evenodd" clip-rule="evenodd" d="M58.2916 0.000378112C58.1151 0.00788536 57.962 0.124322 57.9077 0.292423L55.9199 6.45325L49.4482 6.44044C49.2651 6.44015 49.1026 6.55806 49.0461 6.7322C48.9895 6.90633 49.0516 7.09711 49.1999 7.20455L54.4439 10.9993L52.4303 17.1537L52.4305 17.1535C52.3735 17.3277 52.4353 17.5184 52.5835 17.6262C52.7316 17.7338 52.9323 17.7336 53.0802 17.6257L58.3095 13.8096L63.5407 17.6257V17.6256C63.6886 17.7335 63.8893 17.7336 64.0375 17.626C64.1856 17.5183 64.2474 17.3274 64.1904 17.1534L62.1769 10.999L67.4209 7.20426L67.421 7.20441C67.5694 7.09695 67.6315 6.90618 67.575 6.7319C67.5183 6.55776 67.356 6.43985 67.1727 6.44029L60.701 6.4531L58.711 0.292272C58.6527 0.111803 58.4812 -0.0075733 58.2917 0.000374087L58.2916 0.000378112Z" fill="#FBA724"/>
<path fill-rule="evenodd" clip-rule="evenodd" d="M82.8043 0.000378112C82.6278 0.00788536 82.4747 0.124322 82.4204 0.292423L80.4326 6.45325L73.9609 6.44044C73.7778 6.44015 73.6153 6.55806 73.5587 6.7322C73.5022 6.90633 73.5643 7.09711 73.7126 7.20455L78.9566 10.9993L76.943 17.1537L76.9431 17.1535C76.8862 17.3277 76.948 17.5184 77.0962 17.6262C77.2443 17.7338 77.445 17.7336 77.5929 17.6257L82.8222 13.8096L88.0534 17.6257V17.6256C88.2013 17.7335 88.4019 17.7336 88.5502 17.626C88.6983 17.5183 88.7601 17.3274 88.7031 17.1534L86.6896 10.999L91.9336 7.20426L91.9337 7.20441C92.0821 7.09695 92.1442 6.90618 92.0877 6.7319C92.031 6.55776 91.8686 6.43985 91.6854 6.44029L85.2137 6.4531L83.2237 0.292272C83.1654 0.111803 82.9939 -0.0075733 82.8044 0.000374087L82.8043 0.000378112Z" fill="#FBA724"/>
</svg>
