<svg width="401" height="486" viewBox="0 0 401 486" fill="none" xmlns="http://www.w3.org/2000/svg">
<path d="M286.993 93.2096C280.84 82.2756 272.75 72.5519 263.117 64.516L244.759 111.3L262.577 144.149C264.3 147.331 263.21 151.306 260.103 153.162C233.19 169.262 212.375 193.834 200.92 223.026C189.466 252.218 188.016 284.39 196.798 314.495C197.814 317.969 195.911 321.625 192.483 322.785L157.081 334.752L138.723 381.536C151.252 382.195 163.797 380.566 175.743 376.733L207.58 366.476C201.924 358.741 196.993 350.5 192.852 341.857L205.028 336.03L205.031 336.031C220.512 368.391 247.7 393.668 281.098 406.756C298.637 413.719 317.398 417.077 336.264 416.623C355.129 416.172 373.711 411.92 390.896 404.126L463.362 219.446C456.063 202.044 445.331 186.29 431.807 173.13C418.284 159.968 402.245 149.67 384.652 142.847C362.472 134.141 338.459 131.164 314.825 134.184C312.093 134.54 309.421 133.197 308.072 130.794L286.993 93.2096ZM290.959 381.625L286.028 394.192C262.047 384.821 241.465 368.406 226.994 347.11L238.152 339.511L238.155 339.512C251.097 358.561 269.507 373.243 290.959 381.625L290.959 381.625ZM232.677 330.629L220.877 337.19C218.458 332.835 216.291 328.343 214.388 323.738L226.869 318.585C228.572 322.71 230.51 326.73 232.677 330.629ZM389.429 296.995C382.89 313.66 369.999 327.043 353.59 334.204C337.181 341.364 318.603 341.714 301.937 335.175C285.271 328.635 271.888 315.744 264.728 299.336C257.567 282.927 257.217 264.348 263.757 247.683C270.296 231.017 283.187 217.634 299.596 210.474C316.004 203.313 334.583 202.964 351.249 209.503C367.901 216.06 381.271 228.952 388.431 245.354C395.587 261.757 395.947 280.327 389.429 296.995ZM251.819 56.3528L235.55 97.8129C222.474 83.4629 202.912 76.881 183.82 80.4118C164.728 83.9399 148.812 97.0807 141.731 115.159L84.1665 261.864C77.0634 279.934 79.796 300.392 91.3934 315.962C102.99 331.535 121.808 340.013 141.154 338.385L124.886 379.845C94.8997 374.106 69.0226 355.313 54.2876 328.571C39.5502 301.832 37.4852 269.92 48.6495 241.501L101.844 105.934C112.985 77.5073 136.201 55.5152 165.191 45.932C194.177 36.349 225.927 40.1672 251.818 56.3544L251.819 56.3528ZM346.317 222.07C359.65 227.302 370.358 237.615 376.084 250.741C381.814 263.866 382.093 278.731 376.862 292.063C371.63 305.396 361.317 316.104 348.19 321.83C335.065 327.56 320.201 327.839 306.868 322.607C293.535 317.376 282.827 307.063 277.101 293.936C271.371 280.811 271.092 265.947 276.324 252.614C281.568 239.292 291.883 228.595 305.005 222.87C318.126 217.142 332.984 216.854 346.317 222.07Z" fill="white"/>
</svg>
